<svg width="36" height="36" viewBox="0 0 36 36" fill="none" xmlns="http://www.w3.org/2000/svg">
<path d="M35.6361 14.3941C35.1227 11.8529 34.0635 9.4538 32.532 7.36276L32.5169 7.34016C32.4795 7.29185 32.4316 7.25272 32.3768 7.22574C32.322 7.19876 32.2618 7.18465 32.2007 7.18446H25.5985C25.5457 7.18446 25.495 7.20527 25.4574 7.24241C25.4199 7.27954 25.3984 7.33 25.3978 7.38284C25.3986 7.42001 25.4089 7.45634 25.4279 7.48832L25.4404 7.5059C26.8158 9.4224 27.7999 11.5916 28.3363 13.8893C28.3375 13.896 28.3375 13.9028 28.3363 13.9094C28.3363 13.9094 28.3363 13.9094 28.3363 13.922C28.3389 13.9445 28.3389 13.9673 28.3363 13.9898C28.3363 14.0952 28.2946 14.1964 28.2203 14.2712C28.146 14.346 28.0452 14.3884 27.9398 14.3891H8.05525C7.94987 14.3884 7.84903 14.346 7.77475 14.2712C7.70046 14.1964 7.65877 14.0952 7.65877 13.9898C7.65753 13.9722 7.65753 13.9546 7.65877 13.937C7.6576 13.9296 7.6576 13.9219 7.65877 13.9144V13.8768C8.40663 10.6855 10.0112 7.75913 12.2993 5.4136C14.5875 3.06807 17.4723 1.39242 20.6424 0.567478C20.6844 0.55713 20.7218 0.533349 20.749 0.499756C20.7762 0.466162 20.7917 0.424592 20.7931 0.381377C20.7945 0.338162 20.7818 0.295672 20.7569 0.260362C20.7319 0.225052 20.6962 0.198857 20.655 0.185773H20.6274H20.5973C17.7388 -0.228051 14.8229 0.051851 12.0951 1.00188C9.36743 1.95191 6.90793 3.54422 4.92391 5.64461C2.9399 7.74499 1.48953 10.2919 0.69506 13.0707C-0.0994089 15.8494 -0.214691 18.7786 0.358916 21.6112C0.874489 24.139 1.92807 26.5261 3.44799 28.6099C3.45487 28.6234 3.46329 28.636 3.47308 28.6476C3.48379 28.6663 3.49733 28.6833 3.51323 28.6978C3.5496 28.7349 3.59294 28.7644 3.64074 28.7846C3.68854 28.8049 3.73987 28.8155 3.79178 28.8158H10.4166C10.4687 28.8145 10.5183 28.7927 10.5544 28.7551C10.5906 28.7175 10.6105 28.6671 10.6098 28.615C10.6099 28.5788 10.6004 28.5432 10.5822 28.512V28.4969C9.20252 26.5767 8.21659 24.402 7.68136 22.0984C7.67888 22.0692 7.67888 22.0398 7.68136 22.0105C7.68135 21.9062 7.72243 21.806 7.7957 21.7317C7.86897 21.6575 7.96854 21.6151 8.07282 21.6138H27.9699C28.0746 21.6144 28.1748 21.6565 28.2486 21.7308C28.3224 21.8052 28.3639 21.9057 28.3639 22.0105C28.3665 22.0314 28.3665 22.0525 28.3639 22.0733C28.3626 22.0841 28.3626 22.0951 28.3639 22.1059C27.7227 24.8345 26.4553 27.3762 24.6621 29.5294C22.8688 31.6826 20.5991 33.3883 18.0326 34.5112C17.1703 34.8875 16.2802 35.1965 15.3702 35.4353C15.3295 35.4467 15.2936 35.471 15.2678 35.5045C15.242 35.538 15.2277 35.5789 15.2271 35.6212C15.2279 35.6646 15.2424 35.7068 15.2685 35.7415C15.2947 35.7762 15.3311 35.8018 15.3727 35.8145H15.3902C15.4026 35.8173 15.4155 35.8173 15.4279 35.8145C19.9728 36.4722 24.597 35.3665 28.3539 32.7237C32.1107 30.0809 34.7159 26.1009 35.6361 21.5987C36.1213 19.2217 36.1213 16.7711 35.6361 14.3941Z" fill="#882BBD"/>
</svg>
